<svg width="300" height="151" viewBox="0 0 300 151" fill="none" xmlns="http://www.w3.org/2000/svg">
<g clip-path="url(#clip0_4394_220)">
<path fill-rule="evenodd" clip-rule="evenodd" d="M131.285 28.919H126.465V10.9312H131.285V28.919ZM131.285 148.126H126.465V46.6019H131.285V148.126Z" fill="#1E1D1C"/>
<path fill-rule="evenodd" clip-rule="evenodd" d="M141.682 148.126H136.957V46.6019H141.682V63.6751C143.384 51.1751 147.354 43.2483 151.607 44.4678C160.397 44.4678 164.556 65.1995 164.556 91.1141V148.431H159.735V91.1141C159.735 71.9068 156.522 58.797 150.851 58.797C145.18 58.797 141.777 72.5165 141.777 92.0287L141.682 148.126Z" fill="#1E1D1C"/>
<path fill-rule="evenodd" clip-rule="evenodd" d="M192.06 81.6629L186.389 102.395V148.126H181.191V3.3092H186.389V80.4434L207.467 3.3092H213.705L195.652 68.858L213.705 148.126H207.75L192.06 81.6629Z" fill="#1E1D1C"/>
<path fill-rule="evenodd" clip-rule="evenodd" d="M221.078 148.126H216.257V0.565308H221.078V148.126Z" fill="#1E1D1C"/>
<path fill-rule="evenodd" clip-rule="evenodd" d="M241.588 150.565C232.798 150.87 225.614 128.309 225.52 99.9556C225.52 99.0409 225.52 98.4312 225.52 97.5166C225.236 69.1629 232.136 45.3824 240.926 44.4678C241.115 44.4678 241.304 44.4678 241.493 44.4678C250.662 44.4678 257.561 68.2483 257.372 101.48H230.34C230.718 121.907 236.2 137.76 242.628 136.236C246.786 135.321 250.378 127.699 252.268 115.809H256.994C254.915 137.151 248.582 151.48 241.588 150.565ZM230.624 87.7605H252.268C251.512 70.6873 246.881 58.1873 241.493 58.4922C236.2 58.4922 231.569 70.6873 230.624 87.7605Z" fill="#1E1D1C"/>
<path fill-rule="evenodd" clip-rule="evenodd" d="M266.73 28.919H261.909V10.9312H266.73V28.919ZM266.73 148.126H261.909V46.6019H266.73V148.126Z" fill="#1E1D1C"/>
<path fill-rule="evenodd" clip-rule="evenodd" d="M277.127 148.126H272.306V46.6019H277.127V63.6751C277.694 58.1873 280.435 44.4678 287.051 44.4678C295.841 44.4678 300 65.1995 300 91.1141V148.431H295.18V91.1141C295.18 71.9068 291.966 58.797 286.2 58.797C280.435 58.797 277.127 72.5166 277.127 92.0288V148.126Z" fill="#1E1D1C"/>
<path fill-rule="evenodd" clip-rule="evenodd" d="M5.38758 75.8702C5.38758 109.712 12.949 135.017 22.7789 135.017C29.0171 135.931 34.9717 125.26 37.9963 107.577H43.2893C41.8715 121.297 35.6333 150.565 22.7789 150.565C9.92444 150.565 5.24691e-05 118.858 5.24691e-05 75.5653C-0.378019 35.3214 9.45185 1.78482 21.9282 0.565308C22.2118 0.565308 22.4953 0.565308 22.8734 0.565308C35.7278 0.565308 41.966 29.2238 43.3838 43.858H37.9963C34.9717 26.1751 29.1116 15.5043 22.8734 16.1141C12.949 16.419 5.38758 42.0287 5.38758 75.8702Z" fill="#1E1D1C"/>
<path fill-rule="evenodd" clip-rule="evenodd" d="M62.0039 150.565C53.1192 150.565 45.9358 127.395 45.9358 98.736C45.9358 98.4311 45.9358 97.8214 45.9358 97.5165C45.6523 68.858 52.6466 45.0775 61.5313 44.4677C61.7203 44.4677 61.8148 44.4677 62.0039 44.4677C66.8243 43.858 71.2666 52.0897 73.4405 65.8092V46.6019H78.261V148.126H73.4405V128.919C71.2666 142.943 66.8243 151.175 62.0039 150.565ZM73.4405 97.2116C73.4405 75.2604 68.6201 58.4921 62.0984 58.4921C55.5766 58.4921 50.7562 74.9555 50.7562 97.2116C50.7562 119.468 55.5766 135.931 62.0984 135.931C68.6201 135.931 73.4405 119.163 73.4405 97.2116Z" fill="#1E1D1C"/>
<path fill-rule="evenodd" clip-rule="evenodd" d="M88.6579 148.126H83.8375V0.565308H88.6579V148.126Z" fill="#1E1D1C"/>
<path fill-rule="evenodd" clip-rule="evenodd" d="M107.467 132.577L117.391 46.6019H122.59L110.397 148.126H104.442L92.2496 46.6019H97.4481L107.467 132.577Z" fill="#1E1D1C"/>
</g>
<defs>
<clipPath id="clip0_4394_220">
<rect width="300" height="150" fill="white" transform="translate(0 0.565308)"/>
</clipPath>
</defs>
</svg>
