<svg width="300" height="151" viewBox="0 0 300 151" fill="none" xmlns="http://www.w3.org/2000/svg">
<g clip-path="url(#clip0_4394_235)">
<path fill-rule="evenodd" clip-rule="evenodd" d="M43.2127 110.215C43.2127 110.606 43.0895 110.998 43.0895 111.39C39.2722 134.501 31.6374 150.562 22.8944 150.562C10.3341 150.562 -0.00976562 116.874 -0.00976562 75.7435C-0.00976562 34.6131 10.3341 0.925293 22.8944 0.925293C31.6374 0.925293 39.2722 16.9858 43.0895 40.8806C43.2127 41.2723 43.2127 41.664 43.3358 42.0557C43.3358 42.0557 36.0705 58.8996 35.9474 58.8996C35.9474 58.5079 35.8242 58.1162 35.8242 57.7245C33.7308 40.8806 28.682 29.9125 22.8944 29.9125C15.1366 30.3042 8.85637 50.2818 8.85637 75.7435C8.85637 101.205 15.2597 121.575 22.8944 121.575C28.4358 121.575 33.3614 110.606 35.5779 94.9377C35.7011 94.546 35.7011 93.7626 35.8242 93.3709L43.2127 110.215Z" fill="#1E1D1C"/>
<path fill-rule="evenodd" clip-rule="evenodd" d="M52.7021 1.91638H61.5683V54.4067H84.7188V1.91638H93.5849V147.636H84.7188V83.7856H61.5683V147.636H52.7021V1.91638Z" fill="#1E1D1C"/>
<path fill-rule="evenodd" clip-rule="evenodd" d="M218.287 147.636V1.91638H250.304V31.2953H227.153V60.2824H248.457V89.2696H227.153V118.257H253.506V147.244H218.287V147.636Z" fill="#1E1D1C"/>
<path fill-rule="evenodd" clip-rule="evenodd" d="M266.098 147.636V1.91638H275.087V118.649H299.962V147.636H266.098Z" fill="#1E1D1C"/>
<path fill-rule="evenodd" clip-rule="evenodd" d="M170.051 147.636H169.804H161.061V1.91638H161.677H173.499L193.078 89.6613V1.91638H201.944V147.636H194.802L170.051 37.9545V147.636Z" fill="#1E1D1C"/>
<path fill-rule="evenodd" clip-rule="evenodd" d="M127.39 31.2953L119.509 89.6613H135.517L127.39 31.2953ZM115.569 118.649L111.382 147.636H100.792L121.11 1.91638H133.547L153.988 147.636H143.398L139.212 118.649H115.569Z" fill="#1E1D1C"/>
</g>
<defs>
<clipPath id="clip0_4394_235">
<rect width="300" height="150" fill="white" transform="translate(0 0.565308)"/>
</clipPath>
</defs>
</svg>
