<svg width="300" height="151" viewBox="0 0 300 151" fill="none" xmlns="http://www.w3.org/2000/svg">
<g clip-path="url(#clip0_4394_251)">
<path d="M0.91001 3.49372H39.8584C73.3468 3.49372 86.451 38.6347 86.451 75.8365C86.451 113.689 69.6461 147.42 37.6744 147.42H0.970677C0.303337 147.42 0.0606673 146.661 0.0606673 146.01C0.0606673 145.251 0.485339 144.6 1.09201 144.6H7.94742C10.0708 144.6 11.4661 142.322 11.4661 138.092V13.0382C11.4661 9.89286 10.6168 6.42214 7.82609 6.42214H0.849343C0.303337 6.42214 0 5.77138 0 5.01216C0 4.3614 0.121335 3.49372 0.91001 3.49372ZM25.2376 140.695C25.2376 143.841 26.0263 144.817 27.179 144.817H37.4924C62.912 144.817 72.1335 110.001 72.1335 75.0772C72.1335 40.1532 62.366 6.31368 40.8898 6.31368H26.8756C25.4196 6.31368 25.2983 8.48288 25.2983 9.45902L25.2376 140.695ZM90.3337 3.49372C89.727 3.49372 89.181 3.92756 89.181 4.79524C89.181 5.66292 89.4843 6.20522 90.0303 6.20522H96.8857C98.4631 6.20522 99.9798 8.1575 99.9798 13.5805V138.201C99.9798 140.804 98.8878 144.708 96.9464 144.708H90.1517C89.363 144.708 89.3023 145.793 89.3023 146.227C89.3023 146.661 89.2417 147.42 90.1517 147.42H123.155C123.64 147.42 124.307 147.312 124.307 146.444C124.307 145.576 124.186 144.708 123.337 144.708H116.967C116.057 144.708 113.569 143.732 113.569 138.743V12.279C113.569 8.6998 114.843 6.31368 117.149 6.31368H123.397C123.943 6.31368 124.247 5.77138 124.247 5.01216C124.247 4.25294 123.943 3.60218 123.215 3.60218H90.3337V3.49372ZM141.901 75.5111C141.901 35.7063 151.85 3.49372 170.536 3.49372C188.857 3.49372 199.171 35.7063 199.171 75.5111C199.171 115.316 189.767 147.528 170.536 147.528C151.911 147.637 141.901 115.316 141.901 75.5111ZM170.536 150.565C197.108 150.565 213.852 116.943 213.852 75.6195C213.852 34.2963 197.29 0.565308 170.536 0.565308C143.842 0.565308 127.219 34.1879 127.219 75.5111C127.219 116.834 144.51 150.565 170.536 150.565ZM298.787 146.552C288.352 148.505 282.588 117.919 277.31 103.385C273.367 92.6477 264.995 81.6933 256.744 79.5241C270.334 78.1141 285.561 70.305 285.561 42.7562C285.561 20.4135 277.856 3.49372 249.585 3.49372H217.007C216.582 3.49372 216.158 3.92756 216.158 4.79524C216.158 5.66292 216.582 6.20522 217.007 6.20522H224.469C226.047 6.20522 227.563 8.1575 227.563 13.5805V138.201C227.563 140.804 226.471 144.708 224.53 144.708H217.189C216.582 144.708 216.34 145.576 216.34 146.01C216.34 146.444 216.582 147.42 217.189 147.42H251.769C252.255 147.42 252.679 146.986 252.679 146.118C252.679 145.251 252.376 144.708 251.709 144.708H244.732C243.822 144.708 241.335 143.624 241.335 138.743V79.8495H244.914C262.022 79.8495 263.296 113.038 271.79 132.019C279.07 148.288 288.595 150.348 293.994 150.348C296.299 150.348 297.877 150.24 299.333 149.589C300.243 149.047 300.425 146.227 298.787 146.552ZM244.793 6.20522H249.828C258.443 6.20522 272.396 12.279 272.396 41.3462C272.396 68.0273 260.02 77.0295 248.554 77.0295H241.213V12.279C241.213 8.59134 242.487 6.20522 244.793 6.20522Z" fill="#1E1D1C"/>
</g>
<defs>
<clipPath id="clip0_4394_251">
<rect width="300" height="150" fill="white" transform="translate(0 0.565308)"/>
</clipPath>
</defs>
</svg>
