<svg width="300" height="151" viewBox="0 0 300 151" fill="none" xmlns="http://www.w3.org/2000/svg">
<g clip-path="url(#clip0_4394_254)">
<path d="M128.914 81.7755L139.457 22.5398L151.438 81.7755H128.914ZM181.15 139.737L155.751 2.15765H138.498L113.578 138.463C112.141 143.24 111.182 146.425 99.6805 146.425V148.973H129.872V146.425C121.246 146.425 117.412 143.24 118.371 139.737L128.435 84.3233H151.917L162.46 141.33C162.46 144.833 161.981 146.107 155.751 146.425H152.875V148.973H193.131V146.425H192.173C186.422 146.425 181.629 143.559 181.15 139.737Z" fill="#1E1D1C"/>
<path d="M54.1534 4.06847C54.1534 6.29777 51.7572 6.29777 49.8403 5.34235C43.6102 2.47611 36.4217 0.883754 28.754 0.565282C14.377 -0.390132 1.4377 6.61624 0 16.1704C0 17.1258 0 18.0812 0 19.0366V127.954C0 147.062 15.3355 150.565 30.1917 150.565C37.8594 150.247 45.5272 148.654 52.2364 145.788C54.6326 145.151 57.508 146.744 57.508 149.61H62.3003V84.3232H71.885V81.7755H31.1502V84.3232H43.131V139.737C43.131 144.196 37.8594 148.018 31.1502 148.336C31.1502 148.336 31.1502 148.336 30.6709 148.336C23.9617 148.336 18.6901 144.514 18.6901 140.056V14.578C18.6901 11.0748 19.6486 3.11305 28.2748 3.43152C35.4633 3.43152 40.2556 7.89012 42.6518 14.578C45.0479 24.7691 46.4856 34.9602 46.4856 45.4697C46.4856 47.699 47.9233 48.6545 51.7572 48.6545H59.4249V1.83917H54.1534V4.06847Z" fill="#1E1D1C"/>
<path d="M256.869 76.043V4.38695H266.933C274.601 4.38695 280.831 8.52708 280.831 13.6226C280.831 13.6226 280.831 13.6226 280.831 13.9411V72.8583C281.31 77.3169 276.038 81.457 269.329 81.457C268.85 81.457 268.371 81.457 267.891 81.457H256.869V76.043ZM266.933 2.15765H226.677V4.38695H237.221V142.285C236.741 145.151 235.304 146.425 228.594 146.425H226.677V148.973H272.205V146.425H267.412C259.744 146.107 256.869 144.196 256.869 139.737V84.3233H270.288C289.457 84.3233 300.479 78.2723 300.479 69.9921V17.4443C300 9.4825 290.895 2.15765 266.933 2.15765Z" fill="#1E1D1C"/>
</g>
<defs>
<clipPath id="clip0_4394_254">
<rect width="300" height="150" fill="white" transform="translate(0 0.565308)"/>
</clipPath>
</defs>
</svg>
