<svg width="300" height="151" viewBox="0 0 300 151" fill="none" xmlns="http://www.w3.org/2000/svg">
<g clip-path="url(#clip0_4394_270)">
<path d="M12.3164 119.628C9.91322 107.753 8.41121 91.5028 8.41121 75.8778C8.41121 60.5653 9.71295 45.8778 12.016 33.3778L12.3164 31.8153C14.6195 17.4403 19.7263 7.75281 24.733 7.75281C28.0374 7.75281 31.4419 10.8778 34.1455 15.2528C39.0521 24.6278 42.9573 39.0028 45.1602 55.8778V30.2528C45.1602 24.6278 42.3565 18.0653 42.3565 18.0653C37.5501 7.12781 31.6422 0.565308 25.2336 0.565308C22.6302 0.565308 19.0254 2.75281 19.0254 2.75281C8.11081 10.2528 0 40.2528 0 75.8778C0 114.003 9.21228 145.565 21.1282 149.628C21.1282 149.628 23.5314 150.878 25.2336 150.565C32.1429 150.565 38.5514 143.065 43.5581 130.253L44.259 128.065C44.8598 125.565 45.2603 122.44 45.2603 119.315V98.0653C45.2603 91.8153 46.2617 86.1903 47.7637 82.7528H34.8465C36.3485 86.1903 37.3498 91.8153 37.3498 98.0653L37.4499 118.065C37.4499 122.128 36.9493 125.565 36.1482 128.378C35.1469 132.128 31.1415 138.378 31.1415 138.378C29.239 141.503 27.036 143.378 24.6328 143.378C19.2256 142.753 14.6195 133.378 12.3164 119.628Z" fill="#1E1D1C"/>
<path d="M142.29 75.5653C142.29 111.19 150.4 140.565 161.115 147.753C161.115 147.753 164.72 149.94 167.323 149.94C173.732 149.94 179.539 143.69 184.346 132.753C184.346 132.753 187.25 127.128 187.25 121.503L188.351 94.3153C185.047 119.94 179.439 129.628 176.235 135.253C173.531 139.628 170.027 142.753 166.822 142.753C161.816 142.753 156.709 134.003 154.406 119.628L154.105 118.065C151.802 105.565 150.501 91.1903 150.501 75.5653C150.501 60.2528 151.802 45.5653 154.105 33.0653L154.406 31.5028C156.709 17.1278 161.816 7.44031 166.822 7.44031C170.127 7.44031 173.531 10.5653 176.235 14.9403C181.141 24.3153 185.047 38.6903 187.25 55.5653V29.9403C187.25 24.3153 184.446 17.7528 184.446 17.7528C179.639 6.81531 173.732 0.565308 167.323 0.565308C164.72 0.565308 161.115 2.75281 161.115 2.75281C150.3 9.62781 142.29 39.6278 142.29 75.5653Z" fill="#1E1D1C"/>
<path d="M216.489 75.5653C216.489 111.19 224.599 140.565 235.314 147.753C235.314 147.753 238.919 149.94 241.522 149.94C247.931 149.94 253.738 143.69 258.545 132.753C258.545 132.753 261.449 127.128 261.449 121.19L262.55 94.0028C259.246 119.628 253.638 129.315 250.434 134.94C247.73 139.315 244.226 142.44 241.021 142.44C236.015 142.44 230.908 133.378 228.605 119.315L228.304 117.753C226.001 105.253 224.7 90.8778 224.7 75.2528C224.7 59.9403 226.001 45.2528 228.304 32.7528L228.605 31.1903C230.908 16.8153 236.015 7.12781 241.021 7.12781C244.326 7.12781 247.73 10.2528 250.434 14.6278C255.34 24.0028 259.246 38.3778 261.449 55.2528V30.2528C261.449 24.6278 258.645 18.0653 258.645 18.0653C253.939 7.12781 248.031 0.565308 241.622 0.565308C239.019 0.565308 235.414 2.75281 235.414 2.75281C224.599 9.94031 216.489 39.9403 216.489 75.5653Z" fill="#1E1D1C"/>
<path d="M300 7.12781H287.583C289.085 10.5653 290.087 15.8778 290.087 22.1278V134.94C290.087 140.878 289.186 146.503 287.684 149.628H299.8C298.398 146.19 297.397 140.878 297.397 134.94V22.1278C297.497 15.8778 298.398 10.2528 300 7.12781Z" fill="#1E1D1C"/>
<path d="M85.514 7.12781H73.0974C74.5994 10.5653 75.6007 16.1903 75.6007 22.4403V106.815C76.0013 122.128 79.1054 135.253 83.4112 141.503C86.9158 146.815 90.821 149.94 95.0267 149.94C99.2323 149.94 103.338 147.128 106.842 141.503H106.943C111.248 135.253 114.352 122.128 114.753 106.815V21.8153C114.753 15.5653 115.754 10.2528 117.256 7.12781H110.047C111.549 10.5653 112.55 15.5653 112.55 21.8153V106.815V107.128C112.25 116.503 110.748 124.628 108.645 130.253L108.545 130.565C106.141 136.503 101.836 140.878 97.7303 140.878C95.2269 140.878 92.8237 139.315 90.5206 136.503L90.3204 136.19C86.315 131.815 83.4112 120.253 82.9105 106.503V106.19V22.4403C82.9105 15.8778 84.012 10.2528 85.514 7.12781Z" fill="#1E1D1C"/>
</g>
<defs>
<clipPath id="clip0_4394_270">
<rect width="300" height="150" fill="white" transform="translate(0 0.565308)"/>
</clipPath>
</defs>
</svg>
