<svg width="300" height="151" viewBox="0 0 300 151" fill="none" xmlns="http://www.w3.org/2000/svg">
<g clip-path="url(#clip0_4394_267)">
<path d="M35.2941 93.1844H19.3669V129.613C19.3669 147.232 24.5264 147.232 25.2742 147.232V149.375H0V147.232C0.672981 147.232 5.90728 146.041 5.90728 129.613V20.3272C5.90728 2.70816 0.747757 2.70816 0 2.70816V0.565308H35.2941C46.3609 0.565308 51.8943 23.6605 51.8943 46.9939C51.8943 70.3272 46.7348 93.1844 35.2941 93.1844ZM29.0877 10.5653H19.3669V83.4224H29.0877C36.341 83.4224 39.8554 66.9939 39.8554 46.9939C39.8554 28.1844 36.341 10.5653 29.0877 10.5653ZM99.0778 150.565L77.2433 93.1844V129.613C77.2433 147.232 82.4028 147.232 83.1505 147.232V149.375H57.8764V147.232C58.5494 147.232 63.7837 146.041 63.7837 129.613V20.3272C63.7837 2.70816 58.6241 2.70816 57.8764 2.70816V0.565308H93.1705C104.237 0.565308 109.771 23.6605 109.771 46.9939C109.771 70.3272 104.611 93.4224 93.1705 93.4224H82.4028C84.7956 101.041 90.0299 104.375 94.5165 104.375C96.6102 104.375 98.7039 103.184 100.424 102.232L118.445 148.661V150.565H99.0778ZM86.9641 10.5653H76.9442V83.4224H86.9641C94.2173 83.4224 97.7318 66.9939 97.7318 46.9939C97.657 28.1844 94.2173 10.5653 86.9641 10.5653ZM157.253 150.565V148.422C159.646 148.422 160.693 146.28 160.693 140.803C160.693 138.661 160.319 135.327 160.02 131.994L155.16 106.518H135.419L131.979 128.661C131.605 131.994 131.306 135.327 131.306 138.661C131.306 144.137 131.979 147.47 134.073 147.47V149.613H121.959V147.47C124.726 147.47 126.82 140.803 128.539 129.851L143.121 37.232L138.933 16.2796C136.839 5.32721 134.746 2.94626 132.353 2.94626V0.565308H151.72L175.274 131.756C176.695 139.375 178.415 148.184 181.481 148.184V150.565H157.253ZM144.766 47.9463L137.139 95.3272H153.44L144.766 47.9463ZM214.083 150.565H186.341V148.422C187.014 148.422 192.248 147.232 192.248 130.803V21.5177C192.248 3.89864 187.089 3.89864 186.341 3.89864V1.75578H214.083C226.57 1.75578 239.357 27.232 239.357 76.7558C239.731 125.089 226.57 150.565 214.083 150.565ZM223.729 47.9463C223.729 20.3272 218.195 10.3272 212.288 10.3272H205.708V140.565H212.288C218.195 140.565 223.729 130.565 223.729 103.184V47.9463ZM275.698 150.565V148.422C278.091 148.422 279.138 146.28 279.138 140.803C279.138 138.661 278.764 135.327 278.465 131.994L273.978 106.518H254.237L250.798 128.661C250.424 131.994 250.125 135.327 250.125 138.661C250.125 144.137 250.798 147.47 252.891 147.47V149.613H240.778V147.47C243.544 147.47 245.638 140.803 247.358 129.851L261.939 37.232L257.752 16.2796C255.658 5.32721 253.564 2.94626 251.171 2.94626V0.565308H270.239L293.794 131.756C295.214 139.375 296.934 148.184 300 148.184V150.565H275.698ZM263.285 47.9463L255.658 96.5177H271.959L263.285 47.9463Z" fill="#1E1D1C"/>
</g>
<defs>
<clipPath id="clip0_4394_267">
<rect width="300" height="150" fill="white" transform="translate(0 0.565308)"/>
</clipPath>
</defs>
</svg>
