<svg width="300" height="151" viewBox="0 0 300 151" fill="none" xmlns="http://www.w3.org/2000/svg">
<g clip-path="url(#clip0_4394_261)">
<path fill-rule="evenodd" clip-rule="evenodd" d="M240.227 0.565308L284.773 145.929H300.227V147.02H251.364V145.929H265.682L251.136 98.2017H221.136L221.364 98.7471C222.5 102.838 223.182 107.474 223.182 111.838V129.838C223.182 139.111 226.591 148.383 232.955 148.383C236.818 148.383 239.773 146.747 243.409 142.929L243.864 143.474C240 148.383 235.227 150.565 227.955 150.565C222.5 150.565 217.955 148.929 214.318 145.929L213.636 145.383C208.864 141.02 205.682 133.656 204.318 123.838L204.091 122.202L203.864 119.747V119.202L195.682 145.929H207.273V147.02H182.955V145.929H194.773L203.864 116.474C203.864 114.838 203.636 112.929 203.636 111.293V98.7471C203.636 82.9289 193.864 73.9289 176.818 73.9289H160V146.202H174.545V147.293H117.955V146.202H132.273L117.727 98.4744H77.0455L62.5 145.656H63.1818C82.2727 141.838 90.9091 124.383 91.1364 106.111H92.0455V147.565H0L68.4091 6.56531H40.9091C18.1818 6.56531 7.72727 27.5653 7.5 48.5653H6.81818V5.4744H89.7727L89.3182 6.56531L21.3636 146.202H57.0455C57.9545 146.202 58.8636 146.202 59.7727 146.202C60.4545 146.202 60.9091 146.202 61.5909 145.929H61.8182L106.136 0.565308H107.045L142.045 115.111V6.56531H127.727V5.4744H177.273C201.136 5.4744 217.727 20.2017 217.727 41.2017C217.727 56.4744 206.364 69.2926 189.545 72.838L186.364 73.3835L189.545 73.6562C199.773 75.0199 207.955 78.838 213.636 84.838L239.318 0.565308H240.227ZM220.682 97.1108L250.455 97.3835L230.455 32.2017L214.091 85.9289L215 87.0199C217.5 89.7471 219.318 93.2926 220.682 97.1108ZM160 72.838V6.56531H172.727C189.773 6.56531 198.864 18.5653 198.864 41.4744C198.864 65.7471 193.636 73.1108 176.818 73.1108C176.818 72.838 160 72.838 160 72.838ZM97.5 31.9289L77.5 97.1108H117.5L97.5 31.9289Z" fill="#1E1D1C"/>
</g>
<defs>
<clipPath id="clip0_4394_261">
<rect width="300" height="150" fill="white" transform="translate(0 0.565308)"/>
</clipPath>
</defs>
</svg>
